# xmcd
#
# Track frame offsets:
#	150
#	13431
#	28193
#	36457
#	47587
#	63154
#	72710
#	84841
#	98650
#	109421
#	118274
#	129430
#
# Disc length: 1907 seconds
#
# Revision: 0
# Processed by: cddbd v1.5PL3 Copyright (c) Steve Scherf et al.
# Submitted via: dBpowerAMP V4.0
#
DISCID=ab07710c
DTITLE=JJ Cale - Really
DYEAR=1900
DGENRE=Blues
TTITLE0=Lies
TTITLE1=Everything Will Be Alright
TTITLE2=I'll Kiss The World Goodbye
TTITLE3=Changes
TTITLE4=Right Down Here
TTITLE5=If You're Ever In Oklahoma
TTITLE6=Ridin' Home
TTITLE7=Going Down
TTITLE8=Soulin'
TTITLE9=Playing In The Street
TTITLE10=Mo Jo
TTITLE11=Louisiana Women
EXTD=Ripped from vinyl 
EXTT0=
EXTT1=
EXTT2=
EXTT3=
EXTT4=
EXTT5=
EXTT6=
EXTT7=
EXTT8=
EXTT9=
EXTT10=
EXTT11=
PLAYORDER=
